<svg xmlns="http://www.w3.org/2000/svg" version="1.1" xmlns:xlink="http://www.w3.org/1999/xlink" xmlns:svgjs="http://svgjs.com/svgjs" width="1440" height="500" preserveAspectRatio="none" viewBox="0 0 1440 500"><g mask="url(&quot;#SvgjsMask1048&quot;)" fill="none"><rect width="1440" height="500" x="0" y="0" fill="rgba(255, 182, 193, 1)"></rect><path d="M -314.28764224577134,106 C -170.29,144 117.71,286.2 405.71235775422866,296 C 693.71,305.8 837.71,149 1125.7123577542286,155 C 1413.71,161 1782.85,316 1845.7123577542286,326 C 1908.57,336 1521.14,229.2 1440,205" stroke="rgba(62, 82, 163, 1)" stroke-width="2"></path><path d="M -749.9510506596998,434 C -605.95,377.6 -317.95,163.2 -29.951050659699845,152 C 258.05,140.8 402.05,391.4 690.0489493403002,378 C 978.05,364.6 1260.06,91 1410.0489493403002,85 C 1560.04,79 1434.01,295.4 1440,348" stroke="rgba(62, 82, 163, 1)" stroke-width="2"></path><path d="M -592.0465755764982,281 C -448.05,241.2 -160.05,62 127.95342442350181,82 C 415.95,102 559.95,359.8 847.9534244235018,381 C 1135.95,402.2 1449.54,189.4 1567.953424423502,188 C 1686.36,186.6 1465.59,336.8 1440,374" stroke="rgba(62, 82, 163, 1)" stroke-width="2"></path><path d="M -139.54934809464532,385 C 4.45,332.8 292.45,125.4 580.4506519053547,124 C 868.45,122.6 1012.45,354.8 1300.4506519053548,378 C 1588.45,401.2 1992.54,240 2020.4506519053548,240 C 2048.36,240 1556.09,350.4 1440,378" stroke="rgba(62, 82, 163, 1)" stroke-width="2"></path></g><defs><mask id="SvgjsMask1048"><rect width="1440" height="500" fill="#ffffff"></rect></mask></defs></svg>