<svg xmlns="http://www.w3.org/2000/svg" version="1.1" xmlns:xlink="http://www.w3.org/1999/xlink" xmlns:svgjs="http://svgjs.com/svgjs" width="375" height="375" preserveAspectRatio="none" viewBox="0 0 375 375"><g mask="url(&quot;#SvgjsMask1072&quot;)" fill="none"><rect width="375" height="375" x="0" y="0" fill="rgba(255, 182, 193, 1)"></rect><path d="M -66.80465030541997,256.5 C -29.2,230.1 46,116.9 121.19534969458003,124.5 C 196.4,132.1 234,305.9 309.19534969458005,294.5 C 384.4,283.1 484.03,82.5 497.19534969458005,67.5 C 510.36,52.5 399.44,189.1 375,219.5" stroke="rgba(62, 82, 163, 1)" stroke-width="2"></path><path d="M -42.047377585151196,64.5 C -4.45,107.1 70.75,262.3 145.9526224148488,277.5 C 221.15,292.7 258.75,146.1 333.9526224148488,140.5 C 409.15,134.9 513.74,252.7 521.9526224148487,249.5 C 530.16,246.3 404.39,149.5 375,124.5" stroke="rgba(62, 82, 163, 1)" stroke-width="2"></path><path d="M -68.76517253632913,142.5 C -31.17,151.9 44.03,188.9 119.23482746367087,189.5 C 194.43,190.1 232.03,124.7 307.23482746367085,145.5 C 382.43,166.3 481.68,304.5 495.23482746367085,293.5 C 508.79,282.5 399.05,131.1 375,90.5" stroke="rgba(62, 82, 163, 1)" stroke-width="2"></path><path d="M -118.99682670209536,156.5 C -81.4,167.7 -6.2,216.3 69.00317329790464,212.5 C 144.2,208.7 181.8,116.7 257.00317329790465,137.5 C 332.2,158.3 421.4,310.1 445.00317329790465,316.5 C 468.6,322.9 389,198.9 375,169.5" stroke="rgba(62, 82, 163, 1)" stroke-width="2"></path></g><defs><mask id="SvgjsMask1072"><rect width="375" height="375" fill="#ffffff"></rect></mask></defs></svg>